<mxfile host="app.diagrams.net" modified="2024-05-06T07:00:04.165Z" agent="Mozilla/5.0 (Windows NT 10.0; Win64; x64) AppleWebKit/537.36 (KHTML, like Gecko) Chrome/124.0.0.0 Safari/537.36" etag="5u35UOpafr31rJnOHXnd" version="24.3.1" type="github">
  <diagram id="wFE0QG_FPsp0jaGvCLVb" name="Page-1">
    <mxGraphModel dx="1050" dy="557" grid="1" gridSize="10" guides="1" tooltips="1" connect="1" arrows="1" fold="1" page="1" pageScale="1" pageWidth="850" pageHeight="1100" math="0" shadow="0">
      <root>
        <mxCell id="0" />
        <mxCell id="1" parent="0" />
        <mxCell id="rNx-pxuNzfIYByY5AXAz-1" value="User" style="verticalAlign=top;align=left;spacingTop=8;spacingLeft=2;spacingRight=12;shape=cube;size=10;direction=south;fontStyle=4;html=1;whiteSpace=wrap;" vertex="1" parent="1">
          <mxGeometry x="10" y="50" width="140" height="110" as="geometry" />
        </mxCell>
        <mxCell id="rNx-pxuNzfIYByY5AXAz-2" value="User Device" style="html=1;dropTarget=0;whiteSpace=wrap;" vertex="1" parent="1">
          <mxGeometry x="20" y="85" width="105" height="60" as="geometry" />
        </mxCell>
        <mxCell id="rNx-pxuNzfIYByY5AXAz-3" value="" style="shape=module;jettyWidth=8;jettyHeight=4;" vertex="1" parent="rNx-pxuNzfIYByY5AXAz-2">
          <mxGeometry x="1" width="20" height="20" relative="1" as="geometry">
            <mxPoint x="-27" y="7" as="offset" />
          </mxGeometry>
        </mxCell>
        <mxCell id="rNx-pxuNzfIYByY5AXAz-4" value="API Server" style="verticalAlign=top;align=left;spacingTop=8;spacingLeft=2;spacingRight=12;shape=cube;size=10;direction=south;fontStyle=4;html=1;whiteSpace=wrap;" vertex="1" parent="1">
          <mxGeometry x="540" y="50" width="130" height="110" as="geometry" />
        </mxCell>
        <mxCell id="rNx-pxuNzfIYByY5AXAz-5" value="Webserver" style="verticalAlign=top;align=left;spacingTop=8;spacingLeft=2;spacingRight=12;shape=cube;size=10;direction=south;fontStyle=4;html=1;whiteSpace=wrap;" vertex="1" parent="1">
          <mxGeometry x="10" y="220" width="430" height="190" as="geometry" />
        </mxCell>
        <mxCell id="rNx-pxuNzfIYByY5AXAz-6" value="Local Srorage" style="html=1;dropTarget=0;whiteSpace=wrap;" vertex="1" parent="1">
          <mxGeometry x="30" y="290" width="150" height="90" as="geometry" />
        </mxCell>
        <mxCell id="rNx-pxuNzfIYByY5AXAz-7" value="" style="shape=module;jettyWidth=8;jettyHeight=4;" vertex="1" parent="rNx-pxuNzfIYByY5AXAz-6">
          <mxGeometry x="1" width="20" height="20" relative="1" as="geometry">
            <mxPoint x="-27" y="7" as="offset" />
          </mxGeometry>
        </mxCell>
        <mxCell id="rNx-pxuNzfIYByY5AXAz-8" value="Web Browser" style="html=1;dropTarget=0;whiteSpace=wrap;" vertex="1" parent="1">
          <mxGeometry x="280" y="290" width="140" height="90" as="geometry" />
        </mxCell>
        <mxCell id="rNx-pxuNzfIYByY5AXAz-9" value="" style="shape=module;jettyWidth=8;jettyHeight=4;" vertex="1" parent="rNx-pxuNzfIYByY5AXAz-8">
          <mxGeometry x="1" width="20" height="20" relative="1" as="geometry">
            <mxPoint x="-27" y="7" as="offset" />
          </mxGeometry>
        </mxCell>
        <mxCell id="rNx-pxuNzfIYByY5AXAz-10" value="Database Server" style="verticalAlign=top;align=left;spacingTop=8;spacingLeft=2;spacingRight=12;shape=cube;size=10;direction=south;fontStyle=4;html=1;whiteSpace=wrap;" vertex="1" parent="1">
          <mxGeometry x="535" y="275" width="140" height="120" as="geometry" />
        </mxCell>
        <mxCell id="rNx-pxuNzfIYByY5AXAz-13" value="&amp;lt;&amp;lt;use&amp;gt;&amp;gt;" style="html=1;verticalAlign=bottom;endArrow=open;dashed=1;endSize=8;curved=0;rounded=0;exitX=1.03;exitY=0.418;exitDx=0;exitDy=0;exitPerimeter=0;entryX=-0.014;entryY=0.806;entryDx=0;entryDy=0;entryPerimeter=0;" edge="1" parent="1" source="rNx-pxuNzfIYByY5AXAz-1" target="rNx-pxuNzfIYByY5AXAz-5">
          <mxGeometry x="0.0247" y="28" relative="1" as="geometry">
            <mxPoint x="350" y="300" as="sourcePoint" />
            <mxPoint x="70" y="170" as="targetPoint" />
            <mxPoint as="offset" />
          </mxGeometry>
        </mxCell>
        <mxCell id="rNx-pxuNzfIYByY5AXAz-14" value="&amp;lt;&amp;lt;store&amp;gt;&amp;gt;" style="html=1;verticalAlign=bottom;endArrow=open;dashed=1;endSize=8;curved=0;rounded=0;entryX=1;entryY=0.25;entryDx=0;entryDy=0;exitX=0;exitY=0.25;exitDx=0;exitDy=0;" edge="1" parent="1" source="rNx-pxuNzfIYByY5AXAz-8" target="rNx-pxuNzfIYByY5AXAz-6">
          <mxGeometry relative="1" as="geometry">
            <mxPoint x="260" y="315" as="sourcePoint" />
            <mxPoint x="200" y="314.69" as="targetPoint" />
          </mxGeometry>
        </mxCell>
        <mxCell id="rNx-pxuNzfIYByY5AXAz-21" value="return" style="html=1;verticalAlign=bottom;endArrow=open;dashed=1;endSize=8;curved=0;rounded=0;exitX=1;exitY=0.75;exitDx=0;exitDy=0;entryX=0;entryY=0.75;entryDx=0;entryDy=0;" edge="1" parent="1" source="rNx-pxuNzfIYByY5AXAz-6" target="rNx-pxuNzfIYByY5AXAz-8">
          <mxGeometry relative="1" as="geometry">
            <mxPoint x="270" y="350" as="sourcePoint" />
            <mxPoint x="190" y="350" as="targetPoint" />
          </mxGeometry>
        </mxCell>
        <mxCell id="rNx-pxuNzfIYByY5AXAz-28" value="Open Weather&amp;nbsp;&lt;div&gt;Api&lt;/div&gt;" style="html=1;dropTarget=0;whiteSpace=wrap;" vertex="1" parent="1">
          <mxGeometry x="550" y="90" width="100" height="50" as="geometry" />
        </mxCell>
        <mxCell id="rNx-pxuNzfIYByY5AXAz-29" value="" style="shape=module;jettyWidth=8;jettyHeight=4;" vertex="1" parent="rNx-pxuNzfIYByY5AXAz-28">
          <mxGeometry x="1" width="20" height="20" relative="1" as="geometry">
            <mxPoint x="-27" y="7" as="offset" />
          </mxGeometry>
        </mxCell>
        <mxCell id="rNx-pxuNzfIYByY5AXAz-30" value="SQL Database" style="html=1;dropTarget=0;whiteSpace=wrap;" vertex="1" parent="1">
          <mxGeometry x="548.75" y="320" width="112.5" height="60" as="geometry" />
        </mxCell>
        <mxCell id="rNx-pxuNzfIYByY5AXAz-31" value="" style="shape=module;jettyWidth=8;jettyHeight=4;" vertex="1" parent="rNx-pxuNzfIYByY5AXAz-30">
          <mxGeometry x="1" width="20" height="20" relative="1" as="geometry">
            <mxPoint x="-27" y="7" as="offset" />
          </mxGeometry>
        </mxCell>
        <mxCell id="rNx-pxuNzfIYByY5AXAz-32" value="&amp;lt;&amp;lt;retrive&amp;gt;&amp;gt;" style="html=1;verticalAlign=bottom;endArrow=open;dashed=1;endSize=8;curved=0;rounded=0;entryX=0.684;entryY=1.019;entryDx=0;entryDy=0;entryPerimeter=0;" edge="1" parent="1" target="rNx-pxuNzfIYByY5AXAz-4">
          <mxGeometry relative="1" as="geometry">
            <mxPoint x="420" y="220" as="sourcePoint" />
            <mxPoint x="420" y="40" as="targetPoint" />
            <Array as="points">
              <mxPoint x="420" y="125" />
            </Array>
          </mxGeometry>
        </mxCell>
        <mxCell id="rNx-pxuNzfIYByY5AXAz-33" value="return response" style="html=1;verticalAlign=bottom;endArrow=open;dashed=1;endSize=8;curved=0;rounded=0;exitX=0.993;exitY=0.631;exitDx=0;exitDy=0;exitPerimeter=0;entryX=0.233;entryY=-0.007;entryDx=0;entryDy=0;entryPerimeter=0;" edge="1" parent="1" source="rNx-pxuNzfIYByY5AXAz-4" target="rNx-pxuNzfIYByY5AXAz-5">
          <mxGeometry relative="1" as="geometry">
            <mxPoint x="590" y="170" as="sourcePoint" />
            <mxPoint x="500" y="170" as="targetPoint" />
            <Array as="points">
              <mxPoint x="588" y="190" />
              <mxPoint x="490" y="190" />
              <mxPoint x="490" y="264" />
            </Array>
          </mxGeometry>
        </mxCell>
        <mxCell id="rNx-pxuNzfIYByY5AXAz-34" value="&amp;lt;&amp;lt;store&amp;gt;&amp;gt;" style="html=1;verticalAlign=bottom;endArrow=open;dashed=1;endSize=8;curved=0;rounded=0;entryX=0.348;entryY=1.004;entryDx=0;entryDy=0;entryPerimeter=0;exitX=0.509;exitY=0;exitDx=0;exitDy=0;exitPerimeter=0;" edge="1" parent="1" source="rNx-pxuNzfIYByY5AXAz-5" target="rNx-pxuNzfIYByY5AXAz-10">
          <mxGeometry relative="1" as="geometry">
            <mxPoint x="450" y="400" as="sourcePoint" />
            <mxPoint x="520" y="330" as="targetPoint" />
          </mxGeometry>
        </mxCell>
        <mxCell id="rNx-pxuNzfIYByY5AXAz-35" value="return data" style="html=1;verticalAlign=bottom;endArrow=open;dashed=1;endSize=8;curved=0;rounded=0;exitX=0.79;exitY=0.993;exitDx=0;exitDy=0;exitPerimeter=0;entryX=0.793;entryY=0.003;entryDx=0;entryDy=0;entryPerimeter=0;" edge="1" parent="1" source="rNx-pxuNzfIYByY5AXAz-10" target="rNx-pxuNzfIYByY5AXAz-5">
          <mxGeometry relative="1" as="geometry">
            <mxPoint x="520" y="370" as="sourcePoint" />
            <mxPoint x="440" y="368" as="targetPoint" />
          </mxGeometry>
        </mxCell>
      </root>
    </mxGraphModel>
  </diagram>
</mxfile>
